<svg width="180" height="180" viewBox="0 0 180 180" fill="none" xmlns="http://www.w3.org/2000/svg">
<rect width="180" height="180" rx="4" fill="#18181B"/>
<path d="M35.9851 107V72.0909H40.2124V103.25H56.4396V107H35.9851ZM68.5888 100.864V78.3636H72.407V100.864H68.5888ZM59.2479 91.5227V87.7045H81.7479V91.5227H59.2479ZM109.638 80.8182C109.434 79.0909 108.604 77.75 107.15 76.7955C105.695 75.8409 103.911 75.3636 101.798 75.3636C100.252 75.3636 98.8999 75.6136 97.7408 76.1136C96.593 76.6136 95.6953 77.3011 95.0476 78.1761C94.4112 79.0511 94.093 80.0455 94.093 81.1591C94.093 82.0909 94.3146 82.892 94.7578 83.5625C95.2124 84.2216 95.7919 84.7727 96.4964 85.2159C97.201 85.6477 97.9396 86.0057 98.7124 86.2898C99.4851 86.5625 100.195 86.7841 100.843 86.9545L104.388 87.9091C105.298 88.1477 106.309 88.4773 107.423 88.8977C108.548 89.3182 109.621 89.892 110.644 90.6193C111.678 91.3352 112.531 92.2557 113.201 93.3807C113.871 94.5057 114.207 95.8864 114.207 97.5227C114.207 99.4091 113.712 101.114 112.724 102.636C111.746 104.159 110.315 105.369 108.428 106.267C106.553 107.165 104.275 107.614 101.593 107.614C99.093 107.614 96.9283 107.21 95.0987 106.403C93.2805 105.597 91.8487 104.472 90.8033 103.028C89.7692 101.585 89.1839 99.9091 89.0476 98H93.4112C93.5249 99.3182 93.968 100.409 94.7408 101.273C95.5249 102.125 96.5135 102.761 97.7067 103.182C98.9112 103.591 100.207 103.795 101.593 103.795C103.207 103.795 104.656 103.534 105.94 103.011C107.224 102.477 108.241 101.739 108.991 100.795C109.741 99.8409 110.116 98.7273 110.116 97.4545C110.116 96.2955 109.792 95.3523 109.144 94.625C108.496 93.8977 107.644 93.3068 106.587 92.8523C105.531 92.3977 104.388 92 103.161 91.6591L98.8658 90.4318C96.1385 89.6477 93.9794 88.5284 92.3885 87.0739C90.7976 85.6193 90.0021 83.7159 90.0021 81.3636C90.0021 79.4091 90.5305 77.7045 91.5874 76.25C92.6555 74.7841 94.0874 73.6477 95.8828 72.8409C97.6896 72.0227 99.7067 71.6136 101.934 71.6136C104.184 71.6136 106.184 72.017 107.934 72.8239C109.684 73.6193 111.07 74.7102 112.093 76.0966C113.127 77.483 113.673 79.0568 113.729 80.8182H109.638ZM121.157 107V72.0909H125.384V89.4091H125.793L141.475 72.0909H146.998L132.339 87.8409L146.998 107H141.884L129.748 90.7727L125.384 95.6818V107H121.157Z" fill="#A7F3D0"/>
</svg>
