<svg width="192" height="192" viewBox="0 0 192 192" fill="none" xmlns="http://www.w3.org/2000/svg">
<rect width="192" height="192" rx="4" fill="#18181B"/>
<path d="M41.9851 113V78.0909H46.2124V109.25H62.4396V113H41.9851ZM74.5888 106.864V84.3636H78.407V106.864H74.5888ZM65.2479 97.5227V93.7045H87.7479V97.5227H65.2479ZM115.638 86.8182C115.434 85.0909 114.604 83.75 113.15 82.7955C111.695 81.8409 109.911 81.3636 107.798 81.3636C106.252 81.3636 104.9 81.6136 103.741 82.1136C102.593 82.6136 101.695 83.3011 101.048 84.1761C100.411 85.0511 100.093 86.0455 100.093 87.1591C100.093 88.0909 100.315 88.892 100.758 89.5625C101.212 90.2216 101.792 90.7727 102.496 91.2159C103.201 91.6477 103.94 92.0057 104.712 92.2898C105.485 92.5625 106.195 92.7841 106.843 92.9545L110.388 93.9091C111.298 94.1477 112.309 94.4773 113.423 94.8977C114.548 95.3182 115.621 95.892 116.644 96.6193C117.678 97.3352 118.531 98.2557 119.201 99.3807C119.871 100.506 120.207 101.886 120.207 103.523C120.207 105.409 119.712 107.114 118.724 108.636C117.746 110.159 116.315 111.369 114.428 112.267C112.553 113.165 110.275 113.614 107.593 113.614C105.093 113.614 102.928 113.21 101.099 112.403C99.2805 111.597 97.8487 110.472 96.8033 109.028C95.7692 107.585 95.1839 105.909 95.0476 104H99.4112C99.5249 105.318 99.968 106.409 100.741 107.273C101.525 108.125 102.513 108.761 103.707 109.182C104.911 109.591 106.207 109.795 107.593 109.795C109.207 109.795 110.656 109.534 111.94 109.011C113.224 108.477 114.241 107.739 114.991 106.795C115.741 105.841 116.116 104.727 116.116 103.455C116.116 102.295 115.792 101.352 115.144 100.625C114.496 99.8977 113.644 99.3068 112.587 98.8523C111.531 98.3977 110.388 98 109.161 97.6591L104.866 96.4318C102.138 95.6477 99.9794 94.5284 98.3885 93.0739C96.7976 91.6193 96.0021 89.7159 96.0021 87.3636C96.0021 85.4091 96.5305 83.7045 97.5874 82.25C98.6555 80.7841 100.087 79.6477 101.883 78.8409C103.69 78.0227 105.707 77.6136 107.934 77.6136C110.184 77.6136 112.184 78.017 113.934 78.8239C115.684 79.6193 117.07 80.7102 118.093 82.0966C119.127 83.483 119.673 85.0568 119.729 86.8182H115.638ZM127.157 113V78.0909H131.384V95.4091H131.793L147.475 78.0909H152.998L138.339 93.8409L152.998 113H147.884L135.748 96.7727L131.384 101.682V113H127.157Z" fill="#A7F3D0"/>
</svg>
