<svg width="512" height="512" viewBox="0 0 512 512" fill="none" xmlns="http://www.w3.org/2000/svg">
<rect width="512" height="512" rx="4" fill="#18181B"/>
<path d="M102.958 305.5V206.591H114.935V294.875H160.912V305.5H102.958ZM195.335 288.114V224.364H206.153V288.114H195.335ZM168.869 261.648V250.83H232.619V261.648H168.869ZM311.642 231.318C311.063 226.424 308.712 222.625 304.591 219.92C300.47 217.216 295.415 215.864 289.426 215.864C285.048 215.864 281.216 216.572 277.932 217.989C274.68 219.405 272.137 221.353 270.301 223.832C268.498 226.312 267.597 229.129 267.597 232.284C267.597 234.924 268.225 237.194 269.48 239.094C270.768 240.961 272.41 242.523 274.407 243.778C276.403 245.002 278.496 246.016 280.685 246.821C282.874 247.594 284.887 248.222 286.722 248.705L296.767 251.409C299.343 252.085 302.209 253.019 305.364 254.21C308.551 255.402 311.594 257.027 314.492 259.088C317.422 261.116 319.837 263.724 321.736 266.912C323.636 270.099 324.586 274.011 324.586 278.648C324.586 283.992 323.185 288.822 320.384 293.136C317.615 297.451 313.558 300.88 308.213 303.423C302.901 305.967 296.445 307.239 288.847 307.239C281.764 307.239 275.63 306.096 270.446 303.81C265.295 301.524 261.238 298.336 258.276 294.247C255.346 290.158 253.688 285.409 253.301 280H265.665C265.987 283.735 267.243 286.826 269.432 289.273C271.654 291.687 274.455 293.491 277.836 294.682C281.248 295.841 284.919 296.42 288.847 296.42C293.419 296.42 297.524 295.68 301.162 294.199C304.801 292.686 307.682 290.593 309.807 287.92C311.932 285.216 312.995 282.061 312.995 278.455C312.995 275.17 312.077 272.498 310.242 270.438C308.407 268.377 305.992 266.703 302.998 265.415C300.003 264.127 296.767 263 293.29 262.034L281.12 258.557C273.392 256.335 267.275 253.164 262.767 249.043C258.26 244.921 256.006 239.528 256.006 232.864C256.006 227.326 257.503 222.496 260.498 218.375C263.524 214.222 267.581 211.002 272.668 208.716C277.787 206.398 283.502 205.239 289.813 205.239C296.188 205.239 301.855 206.382 306.813 208.668C311.771 210.921 315.699 214.012 318.597 217.94C321.527 221.868 323.072 226.328 323.233 231.318H311.642ZM344.278 305.5V206.591H356.255V255.659H357.414L401.846 206.591H417.494L375.96 251.216L417.494 305.5H403.005L368.619 259.523L356.255 273.432V305.5H344.278Z" fill="#A7F3D0"/>
</svg>
