<svg width="512" height="512" viewBox="0 0 512 512" fill="none" xmlns="http://www.w3.org/2000/svg">
<rect width="512" height="512" rx="4" fill="#18181B"/>
<path d="M111.96 302.5V209.409H123.233V292.5H166.506V302.5H111.96ZM198.903 286.136V226.136H209.085V286.136H198.903ZM173.994 261.227V251.045H233.994V261.227H173.994ZM308.369 232.682C307.824 228.076 305.612 224.5 301.733 221.955C297.854 219.409 293.097 218.136 287.46 218.136C283.339 218.136 279.733 218.803 276.642 220.136C273.581 221.47 271.188 223.303 269.46 225.636C267.763 227.97 266.915 230.621 266.915 233.591C266.915 236.076 267.506 238.212 268.688 240C269.9 241.758 271.445 243.227 273.324 244.409C275.203 245.561 277.172 246.515 279.233 247.273C281.294 248 283.188 248.591 284.915 249.045L294.369 251.591C296.794 252.227 299.491 253.106 302.46 254.227C305.46 255.348 308.324 256.879 311.051 258.818C313.809 260.727 316.081 263.182 317.869 266.182C319.657 269.182 320.551 272.864 320.551 277.227C320.551 282.258 319.233 286.803 316.597 290.864C313.991 294.924 310.172 298.152 305.142 300.545C300.142 302.939 294.066 304.136 286.915 304.136C280.248 304.136 274.475 303.061 269.597 300.909C264.748 298.758 260.93 295.758 258.142 291.909C255.384 288.061 253.824 283.591 253.46 278.5H265.097C265.4 282.015 266.581 284.924 268.642 287.227C270.733 289.5 273.369 291.197 276.551 292.318C279.763 293.409 283.218 293.955 286.915 293.955C291.218 293.955 295.081 293.258 298.506 291.864C301.93 290.439 304.642 288.47 306.642 285.955C308.642 283.409 309.642 280.439 309.642 277.045C309.642 273.955 308.778 271.439 307.051 269.5C305.324 267.561 303.051 265.985 300.233 264.773C297.415 263.561 294.369 262.5 291.097 261.591L279.642 258.318C272.369 256.227 266.612 253.242 262.369 249.364C258.127 245.485 256.006 240.409 256.006 234.136C256.006 228.924 257.415 224.379 260.233 220.5C263.081 216.591 266.9 213.561 271.688 211.409C276.506 209.227 281.884 208.136 287.824 208.136C293.824 208.136 299.157 209.212 303.824 211.364C308.491 213.485 312.188 216.394 314.915 220.091C317.672 223.788 319.127 227.985 319.278 232.682H308.369ZM339.085 302.5V209.409H350.358V255.591H351.449L393.267 209.409H407.994L368.903 251.409L407.994 302.5H394.358L361.994 259.227L350.358 272.318V302.5H339.085Z" fill="#A7F3D0"/>
</svg>
